<svg width="1440" height="710" viewBox="0 0 1440 710" fill="none" xmlns="http://www.w3.org/2000/svg">
<path d="M0.5 30.5L1439.5 30.5V709.5H0.5L0.5 30.5Z" fill="#FFC8D0"/>
<path d="M0.5 30.5L1439.5 30.5V709.5H0.5L0.5 30.5Z" stroke="#5D4C5E"/>
<path d="M0.5 0.5L1439.5 0.5V29.5L0.5 29.5L0.5 0.5Z" fill="#5D4C5E"/>
<path d="M0.5 0.5L1439.5 0.5V29.5L0.5 29.5L0.5 0.5Z" stroke="#5D4C5E"/>
<rect x="16.5" y="50.5" width="1407" height="639" rx="33.5" fill="#5D4C5E"/>
<rect x="16.5" y="50.5" width="1407" height="639" rx="33.5" stroke="#FFC8D0"/>
<path d="M16 116C16 97.2223 31.2223 82 50 82H686C704.778 82 720 97.2223 720 116V690H50C31.2223 690 16 674.778 16 656L16 116Z" fill="#5D4C5E"/>
<path d="M336 35H1105V66C1105 85.33 1089.33 101 1070 101H371C351.67 101 336 85.33 336 66V35Z" fill="#FFC8D0"/>
<g clip-path="url(#clip0_98_59)">
<path d="M1079 84C1079 65.2223 1094.22 50 1113 50H1390C1408.78 50 1424 65.2223 1424 84V101H1079V84Z" fill="#FFC8D0"/>
</g>
<path d="M1113 50.5H1390C1408.5 50.5 1423.5 65.4985 1423.5 84V100.5H1079.5V84C1079.5 65.4985 1094.5 50.5 1113 50.5Z" stroke="#FFC8D0"/>
<g clip-path="url(#clip1_98_59)">
<path d="M16 84C16 65.2223 31.2223 50 50 50H333C351.778 50 367 65.2223 367 84V101H16V84Z" fill="#FFC8D0"/>
</g>
<defs>
<clipPath id="clip0_98_59">
<path d="M1079 84C1079 65.2223 1094.22 50 1113 50H1390C1408.78 50 1424 65.2223 1424 84V101H1079V84Z" fill="white"/>
</clipPath>
<clipPath id="clip1_98_59">
<path d="M16 84C16 65.2223 31.2223 50 50 50H333C351.778 50 367 65.2223 367 84V101H16V84Z" fill="white"/>
</clipPath>
</defs>
</svg>
